<svg xmlns="http://www.w3.org/2000/svg" viewBox="0 0 936 1404"><filter id="b"><feGaussianBlur stdDeviation="12" /></filter><path fill="#75716c" d="M0 0h932v1404H0z"/><g filter="url(#b)" transform="translate(2.7 2.7) scale(5.48438)" fill-opacity=".5"><ellipse fill="#fff" rx="1" ry="1" transform="matrix(74.9801 26.37752 -22.47367 63.8831 123.9 29.4)"/><ellipse fill="#120700" rx="1" ry="1" transform="matrix(49.35706 5.07757 -17.02001 165.44488 34.9 232.1)"/><ellipse rx="1" ry="1" transform="matrix(-8.94137 12.44669 -50.815 -36.50413 130 149.8)"/><ellipse fill="#fff" cx="113" cy="21" rx="64" ry="64"/><ellipse fill="#0d0400" rx="1" ry="1" transform="matrix(25.93696 64.4686 -21.82104 8.77903 16.5 15)"/><ellipse fill="#f9fbfa" cx="90" cy="87" rx="21" ry="15"/><ellipse fill="#e5bf9c" cx="11" cy="136" rx="4" ry="169"/><ellipse fill="#071e23" rx="1" ry="1" transform="matrix(9.01302 11.01175 -30.24887 24.75841 126.9 234.6)"/></g></svg>