<svg xmlns="http://www.w3.org/2000/svg" viewBox="0 0 936 1404"><filter id="b"><feGaussianBlur stdDeviation="12" /></filter><path fill="#94b4c1" d="M0 0h932v1404H0z"/><g filter="url(#b)" transform="translate(2.7 2.7) scale(5.48438)" fill-opacity=".5"><path fill="#403200" d="M100.1 217.3l12.4-88.1 67.4 9.5-12.4 88.1z"/><ellipse fill="#f8ffff" cx="34" cy="195" rx="61" ry="121"/><ellipse fill="#1373b2" rx="1" ry="1" transform="rotate(-162.8 54.8 .7) scale(169 37.0181)"/><ellipse fill="#120f00" rx="1" ry="1" transform="rotate(-24.8 475.2 -239) scale(8.11604 43.41964)"/><ellipse fill="#807312" rx="1" ry="1" transform="matrix(12.49422 21.56203 -15.6431 9.06446 107.2 210.3)"/><ellipse fill="#f0f4f3" cx="103" cy="246" rx="169" ry="13"/><ellipse fill="#b7cac9" rx="1" ry="1" transform="matrix(18.39485 -19.26904 25.35474 24.20444 93 153.4)"/><ellipse fill="#88bae0" rx="1" ry="1" transform="matrix(7.7551 -46.8448 101.85007 16.86117 67.5 74.6)"/></g></svg>