<svg xmlns="http://www.w3.org/2000/svg" viewBox="0 0 936 1404"><filter id="b"><feGaussianBlur stdDeviation="12" /></filter><path fill="#8aa8b0" d="M0 0h932v1404H0z"/><g filter="url(#b)" transform="translate(2.7 2.7) scale(5.48438)" fill-opacity=".5"><ellipse rx="1" ry="1" transform="matrix(-15.3477 -49.46187 90.24472 -28.00235 134.8 221.3)"/><path fill="#cbf4ff" d="M137 23l-153-4L5 271z"/><ellipse fill="#514100" cx="83" cy="179" rx="23" ry="57"/><ellipse fill="#bfeeff" cx="149" cy="95" rx="60" ry="60"/><ellipse fill="#0c0f00" rx="1" ry="1" transform="matrix(-67.44847 51.85919 -20.13936 -26.1934 132.7 225.2)"/><path fill="#e3ecf5" d="M-16 243l86-6L6 77z"/><ellipse fill="#6bbbf5" rx="1" ry="1" transform="matrix(-139.10932 -16.83408 5.26215 -43.48404 90.3 28)"/><ellipse fill="#a69c37" rx="1" ry="1" transform="matrix(-59.68367 19.50334 -4.78027 -14.62848 128 173.7)"/></g></svg>