<svg xmlns="http://www.w3.org/2000/svg" viewBox="0 0 936 1404"><filter id="b"><feGaussianBlur stdDeviation="12" /></filter><path fill="#91abb3" d="M0 0h932v1404H0z"/><g filter="url(#b)" transform="translate(2.7 2.7) scale(5.48438)" fill-opacity=".5"><ellipse rx="1" ry="1" transform="matrix(67.159 -76.0618 47.61819 42.04463 138 206.9)"/><ellipse fill="#f5ffff" rx="1" ry="1" transform="matrix(-47.89002 -51.54861 123.81401 -115.02647 24.2 137.7)"/><ellipse fill="#0b1200" rx="1" ry="1" transform="rotate(-96.4 165.6 40.3) scale(64.4218 87.37229)"/><ellipse fill="#f9ffff" rx="1" ry="1" transform="rotate(-89.2 99.6 85.5) scale(169 39.72421)"/><ellipse fill="#81d3ff" rx="1" ry="1" transform="matrix(161.95652 48.28133 -16.39274 54.98835 131.2 46.5)"/><path fill="#d8e7f4" d="M31 16l15 185 46-19z"/><ellipse fill="#000e00" cx="145" cy="208" rx="20" ry="96"/><ellipse fill="#3eb2ef" rx="1" ry="1" transform="matrix(.53948 -34.31021 78.76458 1.23847 125.4 0)"/></g></svg>