<svg xmlns="http://www.w3.org/2000/svg" xmlns:xlink="http://www.w3.org/1999/xlink" xml:space="preserve" version="1.1" style="shape-rendering:geometricPrecision;text-rendering:geometricPrecision;image-rendering:optimizeQuality;" viewBox="0 0 322 336.25" x="0px" y="0px" fill-rule="evenodd" clip-rule="evenodd"><defs><style type="text/css">
   
    .fil0 {fill: #3a3a3a}
   
  </style></defs><g><line class="fil0" x1="154" y1="269" x2="167" y2="0"/><path class="fil0" d="M4 123c102,-118 213,-117 313,0 6,7 6,17 0,23 -101,119 -212,118 -313,0 -5,-6 -5,-16 0,-23zm157 -53c36,0 65,29 65,65 0,35 -29,64 -65,64 -36,0 -65,-29 -65,-64 0,-36 29,-65 65,-65z"/><path class="fil0" d="M161 101c19,0 34,15 34,34 0,18 -15,34 -34,34 -19,0 -34,-16 -34,-34 0,-19 15,-34 34,-34z"/></g></svg>