<svg xmlns="http://www.w3.org/2000/svg" viewBox="0 0 936 1404"><filter id="b"><feGaussianBlur stdDeviation="12" /></filter><path fill="#97a0a7" d="M0 0h932v1404H0z"/><g filter="url(#b)" transform="translate(2.7 2.7) scale(5.48438)" fill-opacity=".5"><ellipse rx="1" ry="1" transform="matrix(141.92198 -22.07615 10.18308 65.46443 71.6 224.6)"/><ellipse fill="#fff" rx="1" ry="1" transform="matrix(2.05525 73.57916 -168.9341 4.71876 82 64)"/><ellipse fill="#040200" rx="1" ry="1" transform="matrix(-3.45903 -45.9068 124.63 -9.39074 87.4 240.2)"/><path fill="#fff" d="M-17.7 178l-62-88.6L113.8-45.9l62 88.5z"/><path fill="#546b83" d="M185 166L61 113l-74 69z"/><ellipse fill="#e5f9ff" rx="1" ry="1" transform="matrix(163.63112 42.2594 -16.47507 63.79254 111 66.6)"/><ellipse fill="#0a0800" cx="54" cy="250" rx="111" ry="22"/><ellipse fill="#fff" rx="1" ry="1" transform="rotate(131.1 -29.7 65.3) scale(110.78119 28.03693)"/></g></svg>