<svg xmlns="http://www.w3.org/2000/svg" viewBox="0 0 936 1404"><filter id="b"><feGaussianBlur stdDeviation="12" /></filter><path fill="#778b93" d="M0 0h932v1404H0z"/><g filter="url(#b)" transform="translate(2.7 2.7) scale(5.48438)" fill-opacity=".5"><ellipse rx="1" ry="1" transform="matrix(-10.01097 78.14784 -111.62144 -14.29904 81.1 226.2)"/><ellipse fill="#dcffff" cx="95" cy="66" rx="169" ry="79"/><ellipse fill="#180f00" rx="1" ry="1" transform="matrix(77.40844 21.38447 -25.57794 92.58815 74.6 232)"/><path fill="#bcdeff" d="M116 0h54v165h-54z"/><ellipse fill="#bce0ff" rx="1" ry="1" transform="matrix(8.51725 24.24115 -69.99116 24.59175 30.8 128.7)"/><path fill="#1e1000" d="M244.4 233.4L232 297.2l-250.4-48.6L-6 184.8z"/><ellipse fill="#acd3fc" rx="1" ry="1" transform="rotate(-114.7 55.3 4) scale(80.79041 64.75216)"/><path fill="#2f4857" d="M70.8 153l18-24 66.4 50-18 24z"/></g></svg>