<svg xmlns="http://www.w3.org/2000/svg" viewBox="0 0 1404 936"><filter id="b"><feGaussianBlur stdDeviation="12" /></filter><path fill="#475054" d="M0 0h1404v932H0z"/><g filter="url(#b)" transform="translate(2.7 2.7) scale(5.48438)" fill-opacity=".5"><ellipse fill="#e5ffff" rx="1" ry="1" transform="rotate(-10.7 120.6 -414.6) scale(168.3993 30.16758)"/><ellipse fill="#110600" rx="1" ry="1" transform="matrix(-20.5325 -63.85482 242.75872 -78.05899 177.2 125.5)"/><ellipse fill="#e7fdff" rx="1" ry="1" transform="matrix(142.16271 -5.43888 .76469 19.98759 73 0)"/><ellipse fill="#5b819d" rx="1" ry="1" transform="matrix(5.645 19.55758 -127.67888 36.85262 76.3 49.4)"/><ellipse rx="1" ry="1" transform="matrix(66.78277 45.64542 -16.19006 23.6873 18.4 137.6)"/><path fill="#58564e" d="M164 9L-12 109l175 41z"/><ellipse fill="#d1e4ff" cx="241" cy="2" rx="255" ry="5"/><ellipse fill="#081724" cx="255" cy="98" rx="59" ry="83"/></g></svg>