<svg xmlns="http://www.w3.org/2000/svg" viewBox="0 0 1100 733"><filter id="c"><feGaussianBlur stdDeviation="55" /></filter><path fill="#b6bdbf" d="M0 0h1100v730H0z"/><g filter='url(#c)' fill-opacity='.5'><ellipse fill="#000002" fill-opacity=".5" rx="1" ry="1" transform="matrix(599.30701 52.20499 -7.40354 84.9918 106.7 227.7)"/><path fill="#fff" fill-opacity=".5" d="M1027.6 897.3l-644-79.1 54-439.3 644 79z"/><path fill-opacity=".5" d="M107.3 729l35.3-251 63.8 9L171 738z"/><ellipse fill="#fff" fill-opacity=".5" rx="1" ry="1" transform="rotate(146.9 378.4 180.7) scale(197.7108 296.87202)"/><ellipse fill="#242b33" fill-opacity=".5" rx="1" ry="1" transform="matrix(-155.91282 6.53468 -10.15718 -242.34289 2 145)"/><path fill="#081016" fill-opacity=".5" d="M944.1 378.6l-206 49.2 428.5 24.9V347z"/><path fill-opacity=".5" d="M334.9 689l-34-5.4 30.3-191 34 5.4z"/><path fill="#f3fcfc" fill-opacity=".5" d="M764.6 507.5l-735.2-86 474.7-103-379.4-51.9z"/></g></svg>