<svg xmlns="http://www.w3.org/2000/svg" viewBox="0 0 936 1404"><filter id="c"><feGaussianBlur stdDeviation="55" /></filter><path fill="#031005" d="M0 0h932v1404H0z"/><g filter='url(#c)' fill-opacity='.5'><ellipse fill="#23661b" fill-opacity=".5" rx="1" ry="1" transform="matrix(225.41933 -85.62877 16.14156 42.49296 427.5 916.7)"/><ellipse fill="#094d13" fill-opacity=".5" rx="1" ry="1" transform="matrix(-17.14986 -36.11865 219.4393 -104.1942 564.3 1136.2)"/><ellipse fill="#114518" fill-opacity=".5" rx="1" ry="1" transform="rotate(-132.8 194.4 355) scale(155.97492 73.06603)"/><path fill="#093015" fill-opacity=".5" d="M869.3 337.3l-488.1 32.9-400.4-213.9z"/><path fill-opacity=".5" d="M995.4 1077.7l-329 411.3-713-98.7z"/><path fill="#084c19" fill-opacity=".5" d="M463.4 737.6l290.7-32.9-71.3 87.8z"/><path fill="#16701d" fill-opacity=".5" d="M334.2 632l-159-2.7.6-38.4 159 2.8z"/><ellipse fill-opacity=".5" rx="1" ry="1" transform="matrix(-91.20999 -180.56509 134.93179 -68.15895 505.5 541.8)"/></g></svg>