<svg xmlns="http://www.w3.org/2000/svg" viewBox="0 0 936 1404"><filter id="b"><feGaussianBlur stdDeviation="12" /></filter><path fill="#353524" d="M0 0h932v1404H0z"/><g filter="url(#b)" transform="translate(2.7 2.7) scale(5.48438)" fill-opacity=".5"><ellipse fill="#fff" rx="1" ry="1" transform="matrix(31.72084 -5.92894 12.5611 67.20396 77.4 12)"/><ellipse fill="#fff" rx="1" ry="1" transform="matrix(9.28397 61.21918 -25.60236 3.88263 73.4 0)"/><ellipse fill="#000100" rx="1" ry="1" transform="matrix(6.3861 -60.7068 168.0726 17.68051 89.2 171.8)"/><ellipse fill="#fff" cx="73" rx="40" ry="32"/><ellipse fill="#7a602c" rx="1" ry="1" transform="matrix(-17.51251 -2.69243 6.22962 -40.5196 113 41)"/><ellipse fill="#94791f" rx="1" ry="1" transform="matrix(16.2789 -3.74875 7.63975 33.17553 81.4 102.3)"/><ellipse fill="#80575b" rx="1" ry="1" transform="rotate(-57.7 263.9 40.2) scale(24.88022 29.69673)"/><ellipse fill="#000502" rx="1" ry="1" transform="matrix(83.44268 -45.12438 21.86091 40.42456 11 211.2)"/></g></svg>