<svg xmlns="http://www.w3.org/2000/svg" viewBox="0 0 936 1404"><filter id="c"><feGaussianBlur stdDeviation="55" /></filter><path fill="#070903" d="M0 0h932v1404H0z"/><g filter='url(#c)' fill-opacity='.5'><ellipse fill="#704d3b" fill-opacity=".5" rx="1" ry="1" transform="matrix(-233.89523 49.28946 -8.40748 -39.89637 479.4 903.6)"/><path fill="#182509" fill-opacity=".5" d="M118 381.2l444.1 318L266 677.4z"/><path fill="#282814" fill-opacity=".5" d="M145 929.4l-2.3 55.7L632 824l-346.4 5z"/><path fill="#6d4e42" fill-opacity=".5" d="M589.8 885l-236 50.2-5.8-26.8 236-50.2z"/><ellipse fill-opacity=".5" rx="1" ry="1" transform="rotate(-135.4 634.2 477.9) scale(240.952 837.61918)"/><path fill="#1b1a0c" fill-opacity=".5" d="M644.4 957l-230.3 16.5 422.3-192z"/><path fill="#19100d" fill-opacity=".5" d="M112.4 946h373v44h-373z"/><ellipse fill="#010400" fill-opacity=".5" rx="1" ry="1" transform="matrix(227.91614 -125.8772 448.10048 811.34103 747.4 67.2)"/></g></svg>