<svg xmlns="http://www.w3.org/2000/svg" viewBox="0 0 936 1404"><filter id="b"><feGaussianBlur stdDeviation="12" /></filter><path fill="#5c5d44" d="M0 0h932v1404H0z"/><g filter="url(#b)" transform="translate(2.7 2.7) scale(5.48438)" fill-opacity=".5"><path fill="#fff" d="M47-7l58 148L185-4z"/><ellipse rx="1" ry="1" transform="rotate(-7 1253 -50.9) scale(48.55224 157.16173)"/><ellipse rx="1" ry="1" transform="matrix(-66.02346 155.5696 -38.26776 -16.24077 146.5 205.5)"/><ellipse fill="#fff" rx="1" ry="1" transform="matrix(-29.7612 46.89616 -34.68463 -22.01153 122.3 1.6)"/><ellipse fill="#ffff96" rx="1" ry="1" transform="matrix(46.4853 -1.31563 .28926 10.22052 89.1 184.8)"/><ellipse fill="#5f5c22" rx="1" ry="1" transform="matrix(-39.39645 -16.83282 7.85406 -18.38206 74.3 77.6)"/><ellipse fill="#cad1a2" cx="104" cy="136" rx="13" ry="48"/><ellipse fill="#fff" rx="1" ry="1" transform="rotate(-80.5 68 -62.4) scale(59.56605 20.76262)"/></g></svg>