<svg xmlns="http://www.w3.org/2000/svg" viewBox="0 0 936 1404"><filter id="b"><feGaussianBlur stdDeviation="12" /></filter><path fill="#a88d53" d="M0 0h932v1404H0z"/><g filter="url(#b)" transform="translate(2.7 2.7) scale(5.48438)" fill-opacity=".5"><ellipse fill="#002400" rx="1" ry="1" transform="matrix(13.71552 -36.3764 154.75565 58.34976 109.4 14.2)"/><ellipse fill="#002605" rx="1" ry="1" transform="matrix(-14.70678 19.92884 -25.53086 -18.84087 6.5 34)"/><ellipse fill="#fbbe7e" rx="1" ry="1" transform="rotate(-7.3 1081.4 -480.3) scale(69.28249 95.53974)"/><ellipse fill="#003620" rx="1" ry="1" transform="rotate(70.3 62 121.4) scale(106.05387 32.20984)"/><ellipse fill="#153b05" cx="155" cy="95" rx="44" ry="8"/><path fill="#9b5f1e" d="M85.5 186.8l-41.4-53.2 11.5.7 26.7-11.2z"/><ellipse fill="#e39c5c" rx="1" ry="1" transform="matrix(149.76521 -29.1114 7.31638 37.6395 137.5 206.8)"/><ellipse fill="#00512b" rx="1" ry="1" transform="rotate(-44.6 20 -48.8) scale(119.74118 22.34559)"/></g></svg>