<svg xmlns="http://www.w3.org/2000/svg" viewBox="0 0 936 1404"><filter id="b"><feGaussianBlur stdDeviation="12" /></filter><path fill="#52511e" d="M0 0h932v1404H0z"/><g filter="url(#b)" transform="translate(2.7 2.7) scale(5.48438)" fill-opacity=".5"><ellipse fill="#c7c65d" rx="1" ry="1" transform="matrix(48.69756 -154.61435 27.76934 8.74627 0 55.4)"/><ellipse fill="#0e1827" rx="1" ry="1" transform="rotate(-19.9 729.5 -241.7) scale(117.40326 51.13019)"/><path fill="#edffff" d="M30 176h10v57H30z"/><ellipse fill="#678187" cx="143" cy="216" rx="14" ry="31"/><ellipse fill="#8d893b" rx="1" ry="1" transform="matrix(-62.38683 7.43918 -2.3396 -19.62044 66.2 93.5)"/><ellipse fill="#3f3000" rx="1" ry="1" transform="matrix(70.79188 147.75405 -43.74572 20.95944 169 59.3)"/><path fill="#ececac" d="M-12-16l50 38-29 2z"/><ellipse fill="#7b720f" rx="1" ry="1" transform="matrix(31.17135 19.7657 -31.32691 49.40388 47.7 20.4)"/></g></svg>