<svg xmlns="http://www.w3.org/2000/svg" viewBox="0 0 936 1404"><filter id="c"><feGaussianBlur stdDeviation="55" /></filter><path fill="#96816c" d="M0 0h932v1404H0z"/><g filter='url(#c)' fill-opacity='.5'><ellipse fill-opacity=".5" rx="1" ry="1" transform="matrix(-147.19819 -186.24774 233.14737 -184.26462 409.7 682.8)"/><ellipse fill="#fcffff" fill-opacity=".5" rx="1" ry="1" transform="rotate(-52.7 1577.1 -306.4) scale(673.44816 227.97332)"/><ellipse fill="#ffffeb" fill-opacity=".5" rx="1" ry="1" transform="matrix(199.22898 -397.85108 83.44745 41.78737 54.9 650)"/><ellipse fill-opacity=".5" rx="1" ry="1" transform="matrix(-128.30716 36.6624 -91.24532 -319.3306 539.5 717)"/><ellipse fill="#390518" fill-opacity=".5" rx="1" ry="1" transform="rotate(102.8 242.5 573.2) scale(228.04984 105.76998)"/><path fill="#ffef88" fill-opacity=".5" d="M559 1187.7l27.5 394-317.3 22.1-27.6-393.9z"/><ellipse fill="#000100" fill-opacity=".5" rx="1" ry="1" transform="matrix(82.00427 55.40888 -157.45592 233.0323 242.2 676.5)"/><ellipse fill="#ffe3b7" fill-opacity=".5" rx="1" ry="1" transform="matrix(63.37954 330.65858 -45.96232 8.8099 706.4 603.3)"/></g></svg>