<svg xmlns="http://www.w3.org/2000/svg" viewBox="0 0 936 1404"><filter id="b"><feGaussianBlur stdDeviation="12" /></filter><path fill="#2c2f1d" d="M0 0h932v1404H0z"/><g filter="url(#b)" transform="translate(2.7 2.7) scale(5.48438)" fill-opacity=".5"><ellipse fill="#ffec32" rx="1" ry="1" transform="matrix(5.88091 -15.72922 35.37625 13.22664 29.9 183.9)"/><ellipse fill="#f9ce36" rx="1" ry="1" transform="matrix(20.53545 4.06613 -5.80876 29.3364 130.4 208)"/><ellipse fill="#bab593" rx="1" ry="1" transform="rotate(93.4 13.7 149.7) scale(47.77192 20.10993)"/><ellipse fill="#616d6c" rx="1" ry="1" transform="matrix(28.67052 38.82961 -34.05861 25.14777 87.8 76.5)"/><path d="M41 271l79-5L74 49z"/><ellipse cx="111" cy="9" rx="146" ry="25"/><path fill="#ffcca9" d="M36 236l-52 1.9L7.1 253H29z"/><path fill="#e0ed6f" d="M23 114.6L-7.7 96 .9 81.4 32 100z"/></g></svg>