<svg xmlns="http://www.w3.org/2000/svg" viewBox="0 0 936 1404"><filter id="b"><feGaussianBlur stdDeviation="12" /></filter><path fill="#776c5a" d="M0 0h932v1404H0z"/><g filter="url(#b)" transform="translate(2.7 2.7) scale(5.48438)" fill-opacity=".5"><ellipse cx="84" cy="33" rx="95" ry="95"/><ellipse fill="#ffe8c9" rx="1" ry="1" transform="matrix(47.58653 42.2493 -69.64077 78.4383 113.9 212.2)"/><ellipse fill="#fff" cy="152" rx="48" ry="45"/><path fill="#bd4c02" d="M143.4 216.7L46 227l-5.4-51.7L138 165z"/><ellipse fill="#e6ffff" rx="1" ry="1" transform="rotate(171.8 44 128) scale(81.28374 24.74495)"/><ellipse fill="#d2b0bd" rx="1" ry="1" transform="matrix(36.81611 13.23103 -9.10691 25.34052 41.3 137.8)"/><path fill="#eecbc3" d="M111 192l64.8-5.6-40.5-93.3-31.6 34.3z"/><ellipse fill="#000036" rx="1" ry="1" transform="matrix(-10.89517 -2.16907 8.18822 -41.12924 20.3 226.5)"/></g></svg>