<svg xmlns="http://www.w3.org/2000/svg" viewBox="0 0 936 1404"><filter id="c"><feGaussianBlur stdDeviation="55" /></filter><path fill="#271c15" d="M0 0h932v1404H0z"/><g filter='url(#c)' fill-opacity='.5'><ellipse fill="#fff" fill-opacity=".5" rx="1" ry="1" transform="matrix(139.39374 177.13784 -193.24333 152.0675 393.2 368.8)"/><ellipse fill="#fff" fill-opacity=".5" rx="1" ry="1" transform="matrix(-254.13458 -1.33066 .70187 -134.04614 412.4 445)"/><path fill-opacity=".5" d="M320.8 534.7h614.3v872H320.8z"/><ellipse fill="#180000" fill-opacity=".5" rx="1" ry="1" transform="rotate(-25.9 800 -1332.6) scale(140.4894 595.16096)"/><ellipse fill="#fff" fill-opacity=".5" rx="1" ry="1" transform="matrix(-113.85976 152.19949 -88.20871 -65.98855 358.5 412.5)"/><ellipse fill="#ff8013" fill-opacity=".5" rx="1" ry="1" transform="rotate(148.4 137.1 164.6) scale(195.81384 101.14728)"/><ellipse fill-opacity=".5" rx="1" ry="1" transform="rotate(-22.4 3105.7 -592.8) scale(711.78725 578.01348)"/><ellipse fill-opacity=".5" rx="1" ry="1" transform="matrix(-140.15087 -37.02946 191.73263 -725.67887 166.5 2.6)"/></g></svg>