<svg xmlns="http://www.w3.org/2000/svg" viewBox="0 0 936 1404"><filter id="b"><feGaussianBlur stdDeviation="12" /></filter><path fill="#917d68" d="M0 0h932v1404H0z"/><g filter="url(#b)" transform="translate(2.7 2.7) scale(5.48438)" fill-opacity=".5"><ellipse fill="#f4ffff" cx="98" cy="255" rx="72" ry="72"/><ellipse fill="#341a00" rx="1" ry="1" transform="rotate(152.1 35 40.5) scale(169 36.4857)"/><ellipse rx="1" ry="1" transform="rotate(-3.7 3033.3 -2455.3) scale(28.74675 25.47987)"/><ellipse fill="#c6ffff" cx="101" cy="255" rx="65" ry="65"/><path fill="#501100" d="M102.6 91.2l21.2-34 85.6 53.6-21.2 34z"/><ellipse fill="#ffe0aa" rx="1" ry="1" transform="matrix(-7.84864 -11.04117 39.89294 -28.358 57.7 127.7)"/><ellipse fill="#e8ffff" rx="1" ry="1" transform="rotate(-118.3 84.1 122.7) scale(16.04829 46.34204)"/><ellipse fill="#d78100" rx="1" ry="1" transform="matrix(-23.29008 10.86034 -17.60893 -37.76246 18.2 37.2)"/></g></svg>