<svg xmlns="http://www.w3.org/2000/svg" viewBox="0 0 936 1404"><filter id="b"><feGaussianBlur stdDeviation="12" /></filter><path fill="#977d70" d="M0 0h932v1404H0z"/><g filter="url(#b)" transform="translate(2.7 2.7) scale(5.48438)" fill-opacity=".5"><ellipse fill="#fff" rx="1" ry="1" transform="matrix(-5.79651 -39.57134 117.78684 -17.25372 45.7 30.5)"/><ellipse fill="#400000" rx="1" ry="1" transform="matrix(.71055 -50.88614 103.24215 1.44163 135.4 224.9)"/><ellipse fill="#381c16" cx="68" cy="110" rx="22" ry="74"/><ellipse fill="#303422" rx="1" ry="1" transform="matrix(-8.0477 -26.58124 102.64111 -31.07549 141.5 86.7)"/><path fill="#fff" d="M-13-2l168.9 3-.8 45-169-3z"/><ellipse fill="#f8d0b0" rx="1" ry="1" transform="matrix(17.25052 3.39625 -22.01803 111.83587 7.2 203.2)"/><ellipse fill="#c5bdbe" cx="93" cy="151" rx="24" ry="34"/><ellipse fill="#521700" rx="1" ry="1" transform="matrix(2.8574 83.83604 -18.77134 .63979 56.3 213.8)"/></g></svg>