<svg xmlns="http://www.w3.org/2000/svg" viewBox="0 0 936 1404"><filter id="c"><feGaussianBlur stdDeviation="55" /></filter><path fill="#bcbaaf" d="M0 0h932v1404H0z"/><g filter='url(#c)' fill-opacity='.5'><ellipse fill="#4a1700" fill-opacity=".5" rx="1" ry="1" transform="matrix(-244.91371 -69.3036 190.33118 -672.61615 292 1141.7)"/><ellipse fill="#fff" fill-opacity=".5" rx="1" ry="1" transform="rotate(5.2 -2215 6563.2) scale(926.85938 261.82985)"/><path fill="#fbffff" fill-opacity=".5" d="M1017.4 277l-22 987.1L425 885.7z"/><ellipse fill="#673400" fill-opacity=".5" rx="1" ry="1" transform="matrix(-208.74592 61.44902 -138.51328 -470.5377 352.6 1363.8)"/><path fill="#fcffff" fill-opacity=".5" d="M19.2-85l998.2 285.2L-85 628z"/><ellipse fill="#3f1400" fill-opacity=".5" rx="1" ry="1" transform="matrix(-4.67111 55.64179 -201.36514 -16.90454 602.6 1138.3)"/><ellipse fill="#e0feff" fill-opacity=".5" rx="1" ry="1" transform="matrix(-150.6799 -732.07307 162.03466 -33.351 801.2 719.5)"/><ellipse fill="#948b66" fill-opacity=".5" rx="1" ry="1" transform="matrix(186.69904 -14.34123 17.47055 227.43769 277 676.6)"/></g></svg>