<svg xmlns="http://www.w3.org/2000/svg" viewBox="0 0 936 1404"><filter id="b"><feGaussianBlur stdDeviation="12" /></filter><path fill="#a5c6d6" d="M0 0h932v1404H0z"/><g filter="url(#b)" transform="translate(2.7 2.7) scale(5.48438)" fill-opacity=".5"><ellipse fill="#0066a5" rx="1" ry="1" transform="matrix(35.00962 -60.15255 36.7437 21.38534 42.2 255)"/><ellipse fill="#ffe3cf" rx="1" ry="1" transform="matrix(-7.19954 112.3632 -37.19317 -2.3831 131 173)"/><ellipse fill="#0083bc" rx="1" ry="1" transform="matrix(-13.58646 -19.65915 36.58423 -25.2834 49.8 233.5)"/><path fill="#343c00" d="M40 126l46 46-19 3z"/><ellipse fill="#eff8ff" rx="1" ry="1" transform="rotate(66.9 -98.6 79.8) scale(56.21482 32.91294)"/><ellipse fill="#745142" rx="1" ry="1" transform="matrix(20.8348 50.21642 -8.77674 3.64147 169 200)"/><ellipse fill="#4c4c54" cx="84" cy="255" rx="17" ry="58"/><path fill="#08bfeb" d="M64 164L-9 271l92-61z"/></g></svg>