<svg xmlns="http://www.w3.org/2000/svg" viewBox="0 0 936 1404"><filter id="b"><feGaussianBlur stdDeviation="12" /></filter><path fill="#a69073" d="M0 0h932v1404H0z"/><g filter="url(#b)" transform="translate(2.7 2.7) scale(5.48438)" fill-opacity=".5"><ellipse fill="#682100" cx="112" cy="111" rx="69" ry="69"/><ellipse fill="#fff" rx="1" ry="1" transform="matrix(-6.19274 -34.76585 59.94094 -10.6771 127.6 11.5)"/><ellipse fill="#c7cfbb" rx="1" ry="1" transform="matrix(-52.12826 -153.12574 52.1624 -17.75753 29.3 189)"/><ellipse fill="#0c010d" rx="1" ry="1" transform="rotate(-3.9 1032.2 -858) scale(16.56345 53.7225)"/><ellipse fill="#fffff8" rx="1" ry="1" transform="matrix(-3.6979 32.6366 -69.06176 -7.82507 127.3 7.4)"/><ellipse fill="#bfbfa6" rx="1" ry="1" transform="matrix(-19.69745 45.3569 -55.27985 -24.00676 121 240.7)"/><path fill="#2a1b0a" d="M80 127.5L33.6 95.3l-.7 32.8 73-40.3z"/><path fill="#a05a1a" d="M185 209V36L77 49z"/></g></svg>