<svg xmlns="http://www.w3.org/2000/svg" viewBox="0 0 936 1404"><filter id="b"><feGaussianBlur stdDeviation="12" /></filter><path fill="#969794" d="M0 0h932v1404H0z"/><g filter="url(#b)" transform="translate(2.7 2.7) scale(5.48438)" fill-opacity=".5"><ellipse rx="1" ry="1" transform="matrix(.14861 17.11535 -168.99363 1.46738 87.8 112)"/><ellipse fill="#e9ebe8" rx="1" ry="1" transform="matrix(128.35674 -1.54134 .81245 67.65705 75.6 27.7)"/><ellipse rx="1" ry="1" transform="matrix(-4.35656 -23.50587 34.68211 -6.42795 149.9 255)"/><ellipse fill="#071216" rx="1" ry="1" transform="matrix(-24.565 7.78637 -5.52871 -17.44238 43 169.6)"/><ellipse cx="75" cy="110" rx="169" ry="16"/><ellipse fill="#e1e1da" rx="1" ry="1" transform="matrix(-28.94884 11.28668 -17.7723 -45.5836 110.6 173.2)"/><ellipse fill="#19110a" rx="1" ry="1" transform="matrix(-17.16159 -32.82709 9.91514 -5.1835 159.4 174.3)"/><ellipse fill="#dadbd5" rx="1" ry="1" transform="matrix(-106.08235 -25.66402 3.96103 -16.37296 8 201.5)"/></g></svg>