<svg xmlns="http://www.w3.org/2000/svg" viewBox="0 0 936 1404"><filter id="b"><feGaussianBlur stdDeviation="12" /></filter><path fill="#8f8a91" d="M0 0h932v1404H0z"/><g filter="url(#b)" transform="translate(2.7 2.7) scale(5.48438)" fill-opacity=".5"><ellipse fill="#2e0000" rx="1" ry="1" transform="matrix(-71.5636 -103.0376 77.41817 -53.7699 16.9 42.6)"/><ellipse fill="#fff" rx="1" ry="1" transform="matrix(-45.48645 -45.6455 119.70944 -119.2923 147.4 184)"/><ellipse fill="#ffdeab" rx="1" ry="1" transform="rotate(36.5 -80.7 105.2) scale(17.18513 44.32941)"/><ellipse fill="#d7f9ff" cx="166" cy="124" rx="27" ry="169"/><ellipse fill="#000008" cx="93" cy="103" rx="40" ry="33"/><ellipse rx="1" ry="1" transform="matrix(28.97579 20.516 -26.17147 36.96329 36.5 5.4)"/><path fill="#e8ffff" d="M117 233L61 124l-6 120z"/><ellipse fill="#263454" rx="1" ry="1" transform="matrix(-18.85623 38.30948 -29.61464 -14.57656 6.5 187.4)"/></g></svg>