<svg xmlns="http://www.w3.org/2000/svg" viewBox="0 0 936 1404"><filter id="c"><feGaussianBlur stdDeviation="55" /></filter><path fill="#675356" d="M0 0h932v1404H0z"/><g filter='url(#c)' fill-opacity='.5'><path fill="#fff" fill-opacity=".5" d="M518-32.6l224.8-175.6L935.3 38 710.5 213.7z"/><ellipse fill="#fff" fill-opacity=".5" rx="1" ry="1" transform="matrix(691.3082 -56.83588 4.74855 57.75772 455.9 1390.5)"/><ellipse fill="#fffff7" fill-opacity=".5" rx="1" ry="1" transform="matrix(42.6572 -76.01425 205.2654 115.18957 595.3 995.8)"/><ellipse fill="#fff" fill-opacity=".5" rx="1" ry="1" transform="rotate(-118.7 643.3 122.3) scale(147.00041 80.60166)"/><ellipse fill-opacity=".5" rx="1" ry="1" transform="matrix(14.55153 109.05862 -384.19391 51.26241 609.2 1226.7)"/><ellipse fill="#ffcabe" fill-opacity=".5" rx="1" ry="1" transform="matrix(-35.15797 98.1924 -270.60341 -96.89005 269.3 1024.4)"/><ellipse fill-opacity=".5" rx="1" ry="1" transform="matrix(110.28405 28.41199 -89.1007 345.85347 676.1 533.7)"/><path fill="#fff" fill-opacity=".5" d="M2.7 1247.7h224.9v159H2.7z"/></g></svg>