<svg xmlns="http://www.w3.org/2000/svg" viewBox="0 0 936 1404"><filter id="b"><feGaussianBlur stdDeviation="12" /></filter><path fill="#131316" d="M0 0h932v1404H0z"/><g filter="url(#b)" transform="translate(2.7 2.7) scale(5.48438)" fill-opacity=".5"><ellipse fill="#e8b8ad" rx="1" ry="1" transform="matrix(43.90397 21.50833 -13.7654 28.09867 85.7 152.5)"/><path fill="#bdc2cf" d="M104.8 150.5L55 132.4l6.2-17 49.8 18.2z"/><path fill="#000004" d="M167-16L-16 29l201 161z"/><ellipse fill="#000105" cx="27" cy="141" rx="23" ry="169"/><path fill="#794b40" d="M68 137.9l59 34.5-15.2 31.4-62.4-28.4z"/><ellipse cx="104" cy="225" rx="169" ry="33"/><path fill="#000002" d="M128.3 135.2L146.5 270 185 137.3 124 172z"/><path fill="#000a0f" d="M-3.6 105.4l93.3 17.2 95.3 12.1L1-16z"/></g></svg>