<svg xmlns="http://www.w3.org/2000/svg" viewBox="0 0 936 1404"><filter id="c"><feGaussianBlur stdDeviation="55" /></filter><path fill="#2c2b29" d="M0 0h932v1404H0z"/><g filter='url(#c)' fill-opacity='.5'><ellipse fill="#9b8366" fill-opacity=".5" rx="1" ry="1" transform="matrix(135.38617 -916.91815 156.99717 23.18118 765.6 968.7)"/><ellipse fill="#000008" fill-opacity=".5" rx="1" ry="1" transform="rotate(-11.3 3078.6 -888.6) scale(402.79641 714.65057)"/><path fill="#c5a78f" fill-opacity=".5" d="M485.4 277h329v115h-329z"/><path fill="#afc2cc" fill-opacity=".5" d="M218.2 635.4l18.7 268-32.8 2.3-18.7-268z"/><path fill="#bebfb8" fill-opacity=".5" d="M-85 940.6l153.6 235.8L-41.1 1489z"/><path fill="#c8bb6a" fill-opacity=".5" d="M359.2 559l-4.8-54.7 180.3-15.7 4.8 54.6z"/><path fill="#807058" fill-opacity=".5" d="M370.6 1535.8l220.9-496 140.2 62.4-220.8 496z"/><ellipse fill="#000102" fill-opacity=".5" rx="1" ry="1" transform="matrix(-130.56618 -36.9465 177.25054 -626.39014 357.2 1207.6)"/></g></svg>