<svg xmlns="http://www.w3.org/2000/svg" viewBox="0 0 936 1404"><filter id="b"><feGaussianBlur stdDeviation="12" /></filter><path fill="#6da6c4" d="M0 0h932v1404H0z"/><g filter="url(#b)" transform="translate(2.7 2.7) scale(5.48438)" fill-opacity=".5"><ellipse fill="#ffac2a" rx="1" ry="1" transform="matrix(-36.00097 70.35207 -46.11894 -23.60026 163.3 206.5)"/><ellipse fill="#400000" rx="1" ry="1" transform="matrix(38.52305 -15.62911 8.41192 20.73391 156.4 255.5)"/><ellipse fill="#328ccc" rx="1" ry="1" transform="matrix(-69.35942 41.7085 -29.8055 -49.56525 120.3 75.9)"/><ellipse fill="#fff4e2" rx="1" ry="1" transform="matrix(-12.05687 54.70773 -11.5196 -2.53877 120.6 212.9)"/><ellipse fill="#fff" rx="1" ry="1" transform="rotate(104.6 15.4 11.9) scale(11.57018 33.00551)"/><ellipse fill="#58b5ee" cy="133" rx="106" ry="106"/><path fill="#9c6927" d="M89 188l30-28 26 57z"/><path fill="#fff" d="M173.4 9L185-4.1 117.4-14l20.8 29z"/></g></svg>