<svg xmlns="http://www.w3.org/2000/svg" viewBox="0 0 938 1407"><filter id="c"><feGaussianBlur stdDeviation="55" /></filter><path fill="#777671" d="M0 0h934v1407H0z"/><g filter='url(#c)' fill-opacity='.5'><ellipse fill-opacity=".5" rx="1" ry="1" transform="matrix(-235.72722 23.9443 -43.31238 -426.4024 321.8 513.3)"/><ellipse fill="#d3f2ff" fill-opacity=".5" rx="1" ry="1" transform="matrix(159.76218 -175.03949 368.1833 336.04855 732.9 148.8)"/><ellipse fill="#e9d4c1" fill-opacity=".5" rx="1" ry="1" transform="rotate(-48.5 1523 72.5) scale(363.1763 247.18826)"/><ellipse fill="#fff" fill-opacity=".5" rx="1" ry="1" transform="rotate(30 52.4 216) scale(112.34172 449.67499)"/><ellipse fill-opacity=".5" rx="1" ry="1" transform="matrix(-12.6314 120.17979 -237.02208 -24.91202 565.1 696.7)"/><ellipse fill-opacity=".5" rx="1" ry="1" transform="matrix(214.52966 -443.99532 81.65263 39.45292 108.7 1083.6)"/><ellipse fill-opacity=".5" rx="1" ry="1" transform="rotate(171.1 353 595.7) scale(33.0334 368.69075)"/><ellipse fill-opacity=".5" rx="1" ry="1" transform="matrix(52.86054 162.06854 -25.22131 8.22623 814.3 378.2)"/></g></svg>