<svg xmlns="http://www.w3.org/2000/svg" viewBox="0 0 936 1404"><filter id="b"><feGaussianBlur stdDeviation="12" /></filter><path fill="#71767b" d="M0 0h932v1404H0z"/><g filter="url(#b)" transform="translate(2.7 2.7) scale(5.48438)" fill-opacity=".5"><ellipse rx="1" ry="1" transform="matrix(162.53043 30.18107 -7.38218 39.75434 62.9 226.5)"/><ellipse fill="#d6dad8" cx="54" cy="80" rx="100" ry="100"/><ellipse rx="1" ry="1" transform="matrix(-.04708 -169 14.82755 -.00413 166.9 97)"/><ellipse fill="#fff" rx="1" ry="1" transform="matrix(5.39368 -13.90574 67.21993 26.0729 51.5 164.8)"/><path fill="#2f2e3b" d="M99.1 103.3l47 14.3-13.2 43-47-14.2z"/><ellipse fill="#00010c" rx="1" ry="1" transform="matrix(112.78997 -18.45506 6.23633 38.11399 99.3 236.3)"/><ellipse fill="#b8f5ff" cx="103" cy="170" rx="51" ry="16"/><path fill="#73615a" d="M124-16L9 69l147-1z"/></g></svg>