<svg xmlns="http://www.w3.org/2000/svg" viewBox="0 0 936 1404"><filter id="b"><feGaussianBlur stdDeviation="12" /></filter><path fill="#999793" d="M0 0h932v1404H0z"/><g filter="url(#b)" transform="translate(2.7 2.7) scale(5.48438)" fill-opacity=".5"><ellipse rx="1" ry="1" transform="matrix(17.28973 -43.1411 156.87079 62.86935 57 226.8)"/><ellipse fill="#fff" rx="1" ry="1" transform="rotate(-72.7 58.3 -19.3) scale(88.77477 168.99999)"/><ellipse rx="1" ry="1" transform="matrix(-137.91364 -15.2258 3.65019 -33.063 56.3 230.1)"/><ellipse rx="1" ry="1" transform="rotate(-88.6 123.8 76.4) scale(43.44292 23.22583)"/><path fill="#ffb681" d="M69 148h101v52H69z"/><ellipse fill="#fffaf0" rx="1" ry="1" transform="rotate(-70.8 37.5 -4.5) scale(98.42414 38.84363)"/><ellipse fill="#7e9495" rx="1" ry="1" transform="rotate(-169.6 40 42.7) scale(47.23357 17.18414)"/><ellipse fill="#cdf2ff" cx="106" cy="232" rx="3" ry="31"/></g></svg>