<svg xmlns="http://www.w3.org/2000/svg" viewBox="0 0 936 1403"><filter id="b"><feGaussianBlur stdDeviation="12" /></filter><path fill="#c2cbcd" d="M0 0h937v1403H0z"/><g filter="url(#b)" transform="translate(2.7 2.7) scale(5.48047)" fill-opacity=".5"><ellipse rx="1" ry="1" transform="rotate(173.3 22.3 113) scale(17.44109 71.38184)"/><ellipse rx="1" ry="1" transform="matrix(12.90042 -2.61038 10.0569 49.70086 53.5 205)"/><ellipse fill="#e7f0ed" cx="4" cy="34" rx="128" ry="128"/><ellipse fill="#f6ffff" rx="1" ry="1" transform="matrix(-12.7409 -30.3698 14.27837 -5.99014 26.8 215.3)"/><path fill="#01000c" d="M43.2 242.2L34.7 271 72 255.5l.4-89.6z"/><ellipse fill="#d8e8ec" cx="103" cy="195" rx="33" ry="170"/><path fill="#9d978f" d="M16 67l16 63h41z"/><ellipse fill="#f1f9f7" rx="1" ry="1" transform="matrix(-22.197 46.74677 -24.85775 -11.80333 7.4 174)"/></g></svg>