<svg xmlns="http://www.w3.org/2000/svg" viewBox="0 0 936 1404"><filter id="c"><feGaussianBlur stdDeviation="55" /></filter><path fill="#9da3a3" d="M0 0h932v1404H0z"/><g filter='url(#c)' fill-opacity='.5'><ellipse fill="#010000" fill-opacity=".5" rx="1" ry="1" transform="rotate(115.1 -121.3 762.1) scale(587.01995 188.33794)"/><ellipse fill="#fff" fill-opacity=".5" rx="1" ry="1" transform="matrix(213.12223 654.42546 -196.60307 64.02637 142 401.6)"/><ellipse fill="#002000" fill-opacity=".5" rx="1" ry="1" transform="matrix(-246.89096 -35.13779 12.08148 -84.88893 600 530.7)"/><ellipse fill="#e3edf9" fill-opacity=".5" rx="1" ry="1" transform="matrix(-37.37509 201.65793 -911.33904 -168.9067 583.9 135)"/><ellipse fill-opacity=".5" rx="1" ry="1" transform="rotate(134.9 -232.5 724.9) scale(119.56402 50.17546)"/><path fill="#000d00" fill-opacity=".5" d="M751.1 952.3l-160.2-705 23.8 586.5-165.1 13.3z"/><ellipse fill="#0c0c06" fill-opacity=".5" rx="1" ry="1" transform="rotate(-79.7 931.5 202.7) scale(118.46213 159.41047)"/><ellipse fill="#ffecd2" fill-opacity=".5" rx="1" ry="1" transform="matrix(15.11318 54.77795 -146.72869 40.4823 505.2 756)"/></g></svg>