<svg xmlns="http://www.w3.org/2000/svg" viewBox="0 0 936 1404"><filter id="b"><feGaussianBlur stdDeviation="12" /></filter><path fill="#a8a39c" d="M0 0h932v1404H0z"/><g filter="url(#b)" transform="translate(2.7 2.7) scale(5.48438)" fill-opacity=".5"><ellipse fill="#320000" rx="1" ry="1" transform="matrix(-10.55138 58.12201 -93.03358 -16.88917 132.3 195.2)"/><ellipse fill="#faffff" rx="1" ry="1" transform="matrix(39.69598 65.80478 -144.70914 87.29413 67.8 44.6)"/><ellipse fill="#fff" rx="1" ry="1" transform="matrix(14.44354 -20.19682 100.6513 71.97972 36.7 255)"/><ellipse fill="#5f2f1a" rx="1" ry="1" transform="rotate(110.8 -47.3 113.4) scale(19.27974 113.92959)"/><ellipse fill="#c1d3c9" cx="148" cy="149" rx="6" ry="93"/><ellipse rx="1" ry="1" transform="matrix(.45154 -43.11686 7.73794 .08103 73 171.7)"/><path fill="#0051b4" d="M126.2 109.5l-4.7-11 42.3-18 4.7 11z"/><path fill="#fffffd" d="M101 174h11v37h-11z"/></g></svg>