<svg xmlns="http://www.w3.org/2000/svg" viewBox="0 0 936 1404"><filter id="b"><feGaussianBlur stdDeviation="12" /></filter><path fill="#ab756e" d="M0 0h932v1404H0z"/><g filter="url(#b)" transform="translate(2.7 2.7) scale(5.48438)" fill-opacity=".5"><path fill="#fe1a06" d="M173 144l14 134.3L-1 298l-14-134.3z"/><ellipse fill="#81c3c6" rx="1" ry="1" transform="rotate(.2 -9136.7 15208.5) scale(169 105.87289)"/><path fill="#090600" d="M95 84.8l-40.3 7-9.6-29 46.6-5.4z"/><ellipse fill="#f1ffff" rx="1" ry="1" transform="matrix(15.20072 1.32989 -6.49052 74.18702 121.7 64.8)"/><path fill="#143445" d="M98 152.5l-45.7 4.8-4.4-41.8 45.8-4.8z"/><ellipse fill="#dbe8e4" rx="1" ry="1" transform="matrix(-20.49656 94.80036 -14.9639 -3.23531 38.5 39.5)"/><path d="M71.2 17.5l-6.9-24 38.5-11 6.9 24z"/><ellipse fill="#b18267" cx="49" cy="231" rx="64" ry="36"/></g></svg>