<svg xmlns="http://www.w3.org/2000/svg" viewBox="0 0 2106 1404"><filter id="c"><feGaussianBlur stdDeviation="55" /></filter><path fill="#8b5a24" d="M0 0h2106v1398H0z"/><g filter='url(#c)' fill-opacity='.5'><ellipse fill="#ffeb90" fill-opacity=".5" rx="1" ry="1" transform="matrix(-96.70448 -447.27594 169.66061 -36.68192 949.7 825.7)"/><ellipse fill="#ffe08d" fill-opacity=".5" rx="1" ry="1" transform="rotate(-127.1 288.4 319.2) scale(162.46387 405.96374)"/><ellipse fill="#321600" fill-opacity=".5" rx="1" ry="1" transform="matrix(231.99768 253.27857 -505.32755 462.86909 1904.2 716.8)"/><ellipse fill="#0d0000" fill-opacity=".5" rx="1" ry="1" transform="rotate(46.6 -172.4 99) scale(467.86312 321.9501)"/><path fill="#fff4af" fill-opacity=".5" d="M459.3-69.6l368.7-85 53.7 232.4-368.8 85.1z"/><path fill="#ffcc64" fill-opacity=".5" d="M1366 656.3l-96.6 297.3L847 816.3 943.5 519z"/><ellipse fill="#542400" fill-opacity=".5" rx="1" ry="1" transform="matrix(-107.6922 176.14564 -395.8444 -242.012 1237.5 328.5)"/><ellipse fill="#f85c19" fill-opacity=".5" rx="1" ry="1" transform="rotate(-95.1 861 -784.3) scale(214.22619 515.14204)"/></g></svg>