<svg xmlns="http://www.w3.org/2000/svg" viewBox="0 0 936 1404"><filter id="b"><feGaussianBlur stdDeviation="12" /></filter><path fill="#603d3b" d="M0 0h932v1404H0z"/><g filter="url(#b)" transform="translate(2.7 2.7) scale(5.48438)" fill-opacity=".5"><ellipse fill="#dfffff" rx="1" ry="1" transform="rotate(-178.4 36.7 56.3) scale(24.47913 168.99999)"/><ellipse rx="1" ry="1" transform="rotate(-178 71 63.6) scale(45.73397 169)"/><ellipse fill="red" cx="27" cy="115" rx="20" ry="169"/><ellipse rx="1" ry="1" transform="matrix(16.44043 -168.19843 56.74674 5.54667 152.6 150.3)"/><path fill="#cec4ff" d="M122 160.5l-5.2 1.2 3.3-30.5 18.5 26.6z"/><path fill="#b4dad8" d="M57 0h36v256H57z"/><ellipse fill="#f3fffa" rx="1" ry="1" transform="matrix(19.71663 2.03752 -.4316 4.17647 97.8 46.8)"/><ellipse fill="#fd0003" rx="1" ry="1" transform="rotate(-89.3 82 50.8) scale(114.71682 14.80917)"/></g></svg>