<svg xmlns="http://www.w3.org/2000/svg" viewBox="0 0 936 1404"><filter id="b"><feGaussianBlur stdDeviation="12" /></filter><path fill="#664d4e" d="M0 0h932v1404H0z"/><g filter="url(#b)" transform="translate(2.7 2.7) scale(5.48438)" fill-opacity=".5"><ellipse fill="#c8f8ff" rx="1" ry="1" transform="matrix(44.95027 -15.97 36.0665 101.51525 155.6 174.6)"/><ellipse rx="1" ry="1" transform="matrix(-11.22865 -117.9632 44.05017 -4.19304 66.3 188.5)"/><ellipse fill="red" cx="13" cy="114" rx="15" ry="169"/><path d="M23 152h102v42H23z"/><ellipse fill="#d8f9ff" rx="1" ry="1" transform="matrix(-33.48172 .46752 -.18924 -13.5527 92.2 27.4)"/><ellipse fill="#000500" rx="1" ry="1" transform="matrix(19.9279 2.28665 -6.98225 60.84963 140.6 21.6)"/><ellipse fill="#000008" rx="1" ry="1" transform="matrix(-39.06668 1.50008 -5.56232 -144.86022 62.9 216.6)"/><ellipse fill="#c2dcf9" rx="1" ry="1" transform="matrix(-20.65434 -2.06158 4.87537 -48.84494 132.3 230.4)"/></g></svg>