<svg xmlns="http://www.w3.org/2000/svg" viewBox="0 0 936 1404"><filter id="b"><feGaussianBlur stdDeviation="12" /></filter><path fill="#202e33" d="M0 0h932v1404H0z"/><g filter="url(#b)" transform="translate(2.7 2.7) scale(5.48438)" fill-opacity=".5"><ellipse fill="#b2dff5" rx="1" ry="1" transform="matrix(-60.68637 -19.2995 14.92512 -46.93132 111.3 185.5)"/><ellipse fill="#b8ffff" rx="1" ry="1" transform="matrix(-33.70276 -20.65863 12.0231 -19.61464 4.8 205.5)"/><ellipse rx="1" ry="1" transform="rotate(53 -47 88.2) scale(74.03892 161.26054)"/><path d="M185 257.1l-10.4 6L67 76.9l10.3-6z"/><path fill="#d1dde5" d="M185 206.8l-72.7-102.4 4.5 33.3 31.8 56z"/><ellipse rx="1" ry="1" transform="matrix(18.8079 -15.23841 105.41498 130.10765 139.5 104)"/><path fill="#c1ffff" d="M74 146l34 33-11-55z"/><ellipse cx="130" cy="252" rx="154" ry="21"/></g></svg>