<svg xmlns="http://www.w3.org/2000/svg" viewBox="0 0 936 1404"><filter id="b"><feGaussianBlur stdDeviation="12" /></filter><path fill="#1f3539" d="M0 0h932v1404H0z"/><g filter="url(#b)" transform="translate(2.7 2.7) scale(5.48438)" fill-opacity=".5"><ellipse fill="#fff" rx="1" ry="1" transform="rotate(53.9 -144.5 164.4) scale(11.86001 100.34157)"/><ellipse fill="#a6dff7" rx="1" ry="1" transform="matrix(-149.21185 -27.11615 2.56344 -14.1058 39.2 126.1)"/><ellipse fill="#cfddee" rx="1" ry="1" transform="matrix(-55.30149 36.53184 -3.17303 -4.8033 119.3 180.8)"/><ellipse rx="1" ry="1" transform="matrix(114.56098 -74.52727 21.87587 33.6269 129.2 227.3)"/><ellipse rx="1" ry="1" transform="matrix(145.71368 20.91721 -4.6805 32.60536 134.3 97)"/><ellipse fill="#000f0f" cx="114" cy="28" rx="169" ry="93"/><path fill="#000204" d="M32 121h33v62H32z"/><ellipse fill="#afc0d4" rx="1" ry="1" transform="matrix(-93.37704 61.45199 -1.9083 -2.8997 44.4 231)"/></g></svg>