<svg xmlns="http://www.w3.org/2000/svg" viewBox="0 0 936 1404"><filter id="b"><feGaussianBlur stdDeviation="12" /></filter><path fill="#252420" d="M0 0h932v1404H0z"/><g filter="url(#b)" transform="translate(2.7 2.7) scale(5.48438)" fill-opacity=".5"><ellipse fill="#67655f" rx="1" ry="1" transform="matrix(-42.16771 -55.5539 42.56316 -32.3072 102.4 98.8)"/><path fill="#c9c8bf" d="M108 96L82 28l4 84z"/><ellipse rx="1" ry="1" transform="matrix(21.34858 -167.64617 38.78362 4.93883 1.6 143)"/><ellipse rx="1" ry="1" transform="matrix(168.4543 13.57025 -1.8718 23.23562 139.1 16.3)"/><path d="M104 147l10-63-29 37z"/><ellipse fill="#747069" rx="1" ry="1" transform="matrix(-10.14735 2.7 -21.5875 -81.13181 145.8 117.5)"/><ellipse fill="#0e0d0b" cx="70" cy="110" rx="10" ry="169"/><ellipse fill="#110f0c" cx="92" cy="253" rx="79" ry="79"/></g></svg>