<svg xmlns="http://www.w3.org/2000/svg" viewBox="0 0 936 1404"><filter id="c"><feGaussianBlur stdDeviation="55" /></filter><path fill="#1c1c18" d="M0 0h932v1404H0z"/><g filter='url(#c)' fill-opacity='.5'><ellipse fill="#fffff4" fill-opacity=".5" rx="1" ry="1" transform="matrix(33.607 -19.55974 309.5554 531.86942 381.9 676.2)"/><path fill="#7e7764" fill-opacity=".5" d="M726.7 885.7l170-669-669.1-44z"/><ellipse fill-opacity=".5" rx="1" ry="1" transform="matrix(507.6295 635.83768 -31.20937 24.91642 640.3 558.6)"/><path fill="#ebecd6" fill-opacity=".5" d="M381.4 290.8L263 172.6l-49.6-12 254.4 383.1z"/><ellipse fill-opacity=".5" rx="1" ry="1" transform="matrix(-337.14322 -850.74575 326.1716 -129.259 145.8 1067.7)"/><ellipse fill="#e2d7b8" fill-opacity=".5" rx="1" ry="1" transform="matrix(114.71167 161.99232 -28.67566 20.3061 639.3 692.4)"/><path fill="#c6c0a5" fill-opacity=".5" d="M589.6 943.2L54.2 122l584.4 1117.7 43.4-155.1z"/><ellipse fill-opacity=".5" rx="1" ry="1" transform="matrix(-149.12413 -26.35112 100.75715 -570.19669 814 1182.2)"/></g></svg>