<svg xmlns="http://www.w3.org/2000/svg" viewBox="0 0 936 1404"><filter id="b"><feGaussianBlur stdDeviation="12" /></filter><path fill="#cda964" d="M0 0h932v1404H0z"/><g filter="url(#b)" transform="translate(2.7 2.7) scale(5.48438)" fill-opacity=".5"><ellipse fill="#fff" rx="1" ry="1" transform="matrix(-70.35327 9.51213 -3.39542 -25.11307 130.7 105.6)"/><path fill="#900000" d="M-16 69l91 157L60 52z"/><path d="M179.6 213l-26 1-3.2-93 26-1z"/><ellipse fill="#ffcd00" cx="112" cy="179" rx="43" ry="49"/><ellipse fill="#ebffd0" rx="1" ry="1" transform="matrix(-4.48415 -29.66814 145.89827 -22.05161 73.7 22.3)"/><ellipse fill="#689ccc" rx="1" ry="1" transform="matrix(24.78545 2.97243 -7.99754 66.68705 21.7 189.9)"/><path fill="#dae8f9" d="M34.2 216.2l164.4 23-6.8 48.6-164.4-23z"/><ellipse fill="#ffb800" rx="1" ry="1" transform="matrix(-2.90964 -20.24843 78.83006 -11.32763 135.7 61)"/></g></svg>