<svg xmlns="http://www.w3.org/2000/svg" viewBox="0 0 936 1404"><filter id="b"><feGaussianBlur stdDeviation="12" /></filter><path fill="#716016" d="M0 0h932v1404H0z"/><g filter="url(#b)" transform="translate(2.7 2.7) scale(5.48438)" fill-opacity=".5"><ellipse fill="#00000b" cx="148" cy="16" rx="40" ry="146"/><ellipse fill="#bfad28" rx="1" ry="1" transform="matrix(70.1174 19.29906 -31.27766 113.63807 .4 134)"/><path fill="#ffd800" d="M84 205l-20-38 67-2z"/><path fill="#111000" d="M143 268l-36.4-26.5L173 150l36.4 26.4z"/><ellipse rx="1" ry="1" transform="matrix(15.77066 -19.93165 45.16459 35.73588 139.6 13.4)"/><ellipse fill="#fe0" rx="1" ry="1" transform="matrix(87.51403 69.36277 -2.81218 3.54809 65.6 214.2)"/><path d="M98 124l14-69 8 114z"/><ellipse fill="#d8ab10" cx="123" cy="112" rx="7" ry="41"/></g></svg>