<svg xmlns="http://www.w3.org/2000/svg" viewBox="0 0 936 1404"><filter id="b"><feGaussianBlur stdDeviation="12" /></filter><path fill="#8c908f" d="M0 0h932v1404H0z"/><g filter="url(#b)" transform="translate(2.7 2.7) scale(5.48438)" fill-opacity=".5"><path d="M185 253L90 101-11 271z"/><ellipse fill="#fff" rx="1" ry="1" transform="matrix(-161.6155 -49.41082 20.46412 -66.93513 103.6 52.5)"/><ellipse rx="1" ry="1" transform="matrix(40.97881 .05373 -.13203 100.70307 89 215)"/><ellipse fill="#fff" cx="39" cy="132" rx="21" ry="60"/><path fill="#f9faee" d="M147.1 205.6l-23.8-18.5L82.7 25.7 185 49z"/><ellipse rx="1" ry="1" transform="matrix(7.62967 74.18851 -124.9431 12.84936 122.4 250.4)"/><ellipse fill="#fff" rx="1" ry="1" transform="matrix(45.6367 2.232 -.80646 16.48936 17.1 138.8)"/><ellipse fill="#fffffb" rx="1" ry="1" transform="matrix(2.17715 41.54335 -72.56136 3.8027 38.6 50.6)"/></g></svg>