<svg xmlns="http://www.w3.org/2000/svg" viewBox="0 0 936 1404"><filter id="c"><feGaussianBlur stdDeviation="55" /></filter><path fill="#9b6552" d="M0 0h932v1404H0z"/><g filter='url(#c)' fill-opacity='.5'><ellipse fill="#d7ffff" fill-opacity=".5" rx="1" ry="1" transform="matrix(216.1936 -50.96363 123.53208 524.03733 151 1202.7)"/><ellipse fill="#1c0400" fill-opacity=".5" rx="1" ry="1" transform="matrix(242.07 -849.79337 224.91636 64.06911 704 1314.9)"/><ellipse fill="#ffd9c9" fill-opacity=".5" rx="1" ry="1" transform="matrix(-140.83781 193.05198 -291.02137 -212.30972 345.3 2.7)"/><ellipse fill="#c51400" fill-opacity=".5" rx="1" ry="1" transform="matrix(-572.91997 -155.89727 51.69893 -189.99273 268.5 380.7)"/><ellipse fill="#d0fdff" fill-opacity=".5" rx="1" ry="1" transform="matrix(-101.90042 24.2761 -38.26854 -160.63452 407.5 792.1)"/><ellipse fill="#c0c4b6" fill-opacity=".5" rx="1" ry="1" transform="matrix(-120.5529 38.03978 -46.14733 -146.24675 681.3 852.5)"/><ellipse fill="#050200" fill-opacity=".5" rx="1" ry="1" transform="matrix(-8.02276 93.5815 -245.89328 -21.08049 528.6 1040.2)"/><path fill="#980e00" fill-opacity=".5" d="M664.3 392L657.5 2.7l307-5.4 6.9 389.4z"/></g></svg>